<mxfile host="app.diagrams.net" agent="Mozilla/5.0 (Windows NT 10.0; Win64; x64) AppleWebKit/537.36 (KHTML, like Gecko) Chrome/109.0.0.0 Safari/537.36" version="26.1.0">
  <diagram id="C5RBs43oDa-KdzZeNtuy" name="Page-1">
    <mxGraphModel dx="1050" dy="493" grid="1" gridSize="10" guides="1" tooltips="1" connect="1" arrows="1" fold="1" page="1" pageScale="1" pageWidth="827" pageHeight="1169" math="0" shadow="0">
      <root>
        <mxCell id="WIyWlLk6GJQsqaUBKTNV-0" />
        <mxCell id="WIyWlLk6GJQsqaUBKTNV-1" parent="WIyWlLk6GJQsqaUBKTNV-0" />
        <mxCell id="O_he93ySYUVRArU04d9i-2" value="Pool" style="swimlane;childLayout=stackLayout;resizeParent=1;resizeParentMax=0;horizontal=1;startSize=20;horizontalStack=0;html=1;" vertex="1" parent="WIyWlLk6GJQsqaUBKTNV-1">
          <mxGeometry y="40" width="800" height="380" as="geometry">
            <mxRectangle y="40" width="60" height="30" as="alternateBounds" />
          </mxGeometry>
        </mxCell>
        <mxCell id="O_he93ySYUVRArU04d9i-3" value="第一步" style="swimlane;startSize=20;horizontal=0;html=1;" vertex="1" parent="O_he93ySYUVRArU04d9i-2">
          <mxGeometry y="20" width="800" height="120" as="geometry">
            <mxRectangle y="20" width="800" height="30" as="alternateBounds" />
          </mxGeometry>
        </mxCell>
        <mxCell id="WIyWlLk6GJQsqaUBKTNV-3" value="梳理文献" style="rounded=1;whiteSpace=wrap;html=1;fontSize=12;glass=0;strokeWidth=1;shadow=0;" parent="O_he93ySYUVRArU04d9i-3" vertex="1">
          <mxGeometry x="24" y="40" width="120" height="40" as="geometry" />
        </mxCell>
        <mxCell id="O_he93ySYUVRArU04d9i-0" value="初步确定模型" style="rounded=1;whiteSpace=wrap;html=1;fontSize=12;glass=0;strokeWidth=1;shadow=0;" vertex="1" parent="O_he93ySYUVRArU04d9i-3">
          <mxGeometry x="180" y="40" width="120" height="40" as="geometry" />
        </mxCell>
        <mxCell id="O_he93ySYUVRArU04d9i-1" value="" style="endArrow=classic;html=1;rounded=0;exitX=1;exitY=0.5;exitDx=0;exitDy=0;entryX=0;entryY=0.5;entryDx=0;entryDy=0;" edge="1" parent="O_he93ySYUVRArU04d9i-3" source="WIyWlLk6GJQsqaUBKTNV-3" target="O_he93ySYUVRArU04d9i-0">
          <mxGeometry width="50" height="50" relative="1" as="geometry">
            <mxPoint x="60" y="220" as="sourcePoint" />
            <mxPoint x="110" y="170" as="targetPoint" />
          </mxGeometry>
        </mxCell>
        <mxCell id="O_he93ySYUVRArU04d9i-4" value="第二步" style="swimlane;startSize=20;horizontal=0;html=1;" vertex="1" parent="O_he93ySYUVRArU04d9i-2">
          <mxGeometry y="140" width="800" height="120" as="geometry" />
        </mxCell>
        <mxCell id="O_he93ySYUVRArU04d9i-12" style="edgeStyle=orthogonalEdgeStyle;rounded=0;orthogonalLoop=1;jettySize=auto;html=1;exitX=1;exitY=0.5;exitDx=0;exitDy=0;entryX=0;entryY=0.5;entryDx=0;entryDy=0;" edge="1" parent="O_he93ySYUVRArU04d9i-4" source="O_he93ySYUVRArU04d9i-9" target="O_he93ySYUVRArU04d9i-10">
          <mxGeometry relative="1" as="geometry" />
        </mxCell>
        <mxCell id="O_he93ySYUVRArU04d9i-9" value="专家访谈" style="rounded=1;whiteSpace=wrap;html=1;fontSize=12;glass=0;strokeWidth=1;shadow=0;" vertex="1" parent="O_he93ySYUVRArU04d9i-4">
          <mxGeometry x="180" y="40" width="120" height="40" as="geometry" />
        </mxCell>
        <mxCell id="O_he93ySYUVRArU04d9i-10" value="确定模型关键因子" style="rounded=1;whiteSpace=wrap;html=1;fontSize=12;glass=0;strokeWidth=1;shadow=0;" vertex="1" parent="O_he93ySYUVRArU04d9i-4">
          <mxGeometry x="340" y="40" width="120" height="40" as="geometry" />
        </mxCell>
        <mxCell id="O_he93ySYUVRArU04d9i-5" value="第三步" style="swimlane;startSize=20;horizontal=0;html=1;" vertex="1" parent="O_he93ySYUVRArU04d9i-2">
          <mxGeometry y="260" width="800" height="120" as="geometry" />
        </mxCell>
        <mxCell id="O_he93ySYUVRArU04d9i-16" value="" style="edgeStyle=orthogonalEdgeStyle;rounded=0;orthogonalLoop=1;jettySize=auto;html=1;" edge="1" parent="O_he93ySYUVRArU04d9i-5" source="O_he93ySYUVRArU04d9i-13" target="O_he93ySYUVRArU04d9i-15">
          <mxGeometry relative="1" as="geometry" />
        </mxCell>
        <mxCell id="O_he93ySYUVRArU04d9i-13" value="问卷调查" style="rounded=1;whiteSpace=wrap;html=1;fontSize=12;glass=0;strokeWidth=1;shadow=0;" vertex="1" parent="O_he93ySYUVRArU04d9i-5">
          <mxGeometry x="340" y="40" width="120" height="40" as="geometry" />
        </mxCell>
        <mxCell id="O_he93ySYUVRArU04d9i-18" value="" style="edgeStyle=orthogonalEdgeStyle;rounded=0;orthogonalLoop=1;jettySize=auto;html=1;" edge="1" parent="O_he93ySYUVRArU04d9i-5" source="O_he93ySYUVRArU04d9i-15" target="O_he93ySYUVRArU04d9i-17">
          <mxGeometry relative="1" as="geometry" />
        </mxCell>
        <mxCell id="O_he93ySYUVRArU04d9i-15" value="确定模型因子关系" style="rounded=1;whiteSpace=wrap;html=1;fontSize=12;glass=0;strokeWidth=1;shadow=0;" vertex="1" parent="O_he93ySYUVRArU04d9i-5">
          <mxGeometry x="500" y="40" width="120" height="40" as="geometry" />
        </mxCell>
        <mxCell id="O_he93ySYUVRArU04d9i-17" value="完善模型" style="rounded=1;whiteSpace=wrap;html=1;fontSize=12;glass=0;strokeWidth=1;shadow=0;" vertex="1" parent="O_he93ySYUVRArU04d9i-5">
          <mxGeometry x="660" y="40" width="120" height="40" as="geometry" />
        </mxCell>
        <mxCell id="O_he93ySYUVRArU04d9i-11" style="edgeStyle=orthogonalEdgeStyle;rounded=0;orthogonalLoop=1;jettySize=auto;html=1;exitX=0.5;exitY=1;exitDx=0;exitDy=0;entryX=0.5;entryY=0;entryDx=0;entryDy=0;" edge="1" parent="O_he93ySYUVRArU04d9i-2" source="O_he93ySYUVRArU04d9i-0" target="O_he93ySYUVRArU04d9i-9">
          <mxGeometry relative="1" as="geometry" />
        </mxCell>
        <mxCell id="O_he93ySYUVRArU04d9i-14" style="edgeStyle=orthogonalEdgeStyle;rounded=0;orthogonalLoop=1;jettySize=auto;html=1;exitX=0.5;exitY=1;exitDx=0;exitDy=0;entryX=0.5;entryY=0;entryDx=0;entryDy=0;" edge="1" parent="O_he93ySYUVRArU04d9i-2" source="O_he93ySYUVRArU04d9i-10" target="O_he93ySYUVRArU04d9i-13">
          <mxGeometry relative="1" as="geometry" />
        </mxCell>
      </root>
    </mxGraphModel>
  </diagram>
</mxfile>
